<svg xmlns="http://www.w3.org/2000/svg" width="560" height="224" viewBox="0 0 560 224" font-family="ui-monospace, SFMono-Regular, Menlo, Consolas, monospace"><defs><linearGradient id="abg" x1="0" y1="0" x2="0" y2="1"><stop offset="0" stop-color="#111722"/><stop offset="1" stop-color="#0d1117"/></linearGradient></defs><rect width="560" height="224" rx="12" fill="url(#abg)"/><rect x="0.5" y="0.5" width="559" height="223" rx="12" fill="none" stroke="#30363d"/><line x1="0" y1="30" x2="560" y2="30" stroke="#30363d"/><circle cx="20" cy="15.0" r="5" fill="#ff5f56"/><circle cx="36" cy="15.0" r="5" fill="#ffbd2e"/><circle cx="52" cy="15.0" r="5" fill="#27c93f"/><text x="280.0" y="19.0" fill="#7d8590" font-size="12" text-anchor="middle">Bhavesh-Malpure: ~$ github --activity</text><line x1="193.3" y1="52" x2="193.3" y2="202" stroke="#30363d"/><line x1="366.7" y1="52" x2="366.7" y2="202" stroke="#30363d"/><g opacity="0" transform="translate(0,6)"><text x="106.7" y="88" fill="#f0567a" font-size="30" font-weight="700" text-anchor="middle">236</text><text x="106.7" y="112" fill="#f0567a" font-size="12.5" font-weight="700" text-anchor="middle">Total Contributions</text><text x="106.7" y="134" fill="#7d8590" font-size="10.5" text-anchor="middle">Sep 7, 2025 - Present</text><animate attributeName="opacity" from="0" to="1" begin="0.15s" dur="0.45s" fill="freeze"/><animateTransform attributeName="transform" type="translate" from="0 6" to="0 0" begin="0.15s" dur="0.45s" fill="freeze" calcMode="spline" keySplines="0.2 0.8 0.2 1"/></g><g opacity="0" transform="translate(0,6)"><circle cx="280.0" cy="92" r="34" fill="none" stroke="#2ee89e" stroke-width="4"/><g transform="translate(266.2,43.0) scale(1.15)"><path d="M12 1.5c-1.1 2.6-3.6 4.4-3.6 8 0 2.9 2.3 5.2 5.2 5.2s5.2-2.3 5.2-5.2c0-1.4-.5-2.4-1.2-3.4.1 1.4-.6 2.4-1.4 2.4.6-1.8-.1-3.5-1.5-5.2-.9-1.1-1.9-1.4-2.7-1.8z" fill="#2ee89e"/></g><text x="280.0" y="101" fill="#ffce54" font-size="26" font-weight="700" text-anchor="middle">4</text><text x="280.0" y="150" fill="#2ee89e" font-size="12.5" font-weight="700" text-anchor="middle">Current Streak</text><text x="280.0" y="172" fill="#7d8590" font-size="10.5" text-anchor="middle">Sep 2 - Sep 5</text><animate attributeName="opacity" from="0" to="1" begin="0.27s" dur="0.45s" fill="freeze"/><animateTransform attributeName="transform" type="translate" from="0 6" to="0 0" begin="0.27s" dur="0.45s" fill="freeze" calcMode="spline" keySplines="0.2 0.8 0.2 1"/></g><g opacity="0" transform="translate(0,6)"><text x="453.3" y="88" fill="#f0567a" font-size="30" font-weight="700" text-anchor="middle">38</text><text x="453.3" y="112" fill="#f0567a" font-size="12.5" font-weight="700" text-anchor="middle">Longest Streak</text><text x="453.3" y="134" fill="#7d8590" font-size="10.5" text-anchor="middle">Jun 24 - Jul 31</text><animate attributeName="opacity" from="0" to="1" begin="0.39s" dur="0.45s" fill="freeze"/><animateTransform attributeName="transform" type="translate" from="0 6" to="0 0" begin="0.39s" dur="0.45s" fill="freeze" calcMode="spline" keySplines="0.2 0.8 0.2 1"/></g></svg>